<svg width="18" height="18" viewBox="0 0 18 18" fill="none" xmlns="http://www.w3.org/2000/svg">
    <path
        d="M0.00128528 0.642687C0.00128528 0.472236 0.0689969 0.308766 0.189524 0.188239C0.310051 0.0677113 0.473521 0 0.643972 0H1.20697C2.14143 0 2.67872 0.607982 2.98978 1.21468C3.20187 1.62985 3.35483 2.13629 3.48208 2.57589H16.715C16.9136 2.57595 17.1095 2.62203 17.2873 2.71052C17.4651 2.79902 17.62 2.92751 17.7398 3.08592C17.8596 3.24433 17.9411 3.42835 17.9778 3.62353C18.0146 3.81872 18.0056 4.01976 17.9515 4.21089L16.0286 10.9912C15.8757 11.5292 15.5514 12.0026 15.1052 12.3396C14.6589 12.6766 14.1148 12.859 13.5556 12.8589H7.02714C6.46322 12.8591 5.91487 12.6738 5.46659 12.3317C5.01831 11.9896 4.69496 11.5095 4.54637 10.9655L3.72116 7.93847C3.71643 7.9249 3.71214 7.91119 3.7083 7.89734L2.38308 3.40239L2.25455 2.96921C2.12601 2.52448 2.0129 2.13115 1.84323 1.80081C1.63885 1.40234 1.45119 1.28666 1.20568 1.28666H0.642687C0.472236 1.28666 0.308766 1.21895 0.188239 1.09842C0.0677113 0.977894 0 0.814424 0 0.643972L0.00128528 0.642687ZM4.94741 7.55029L5.78675 10.63C5.86117 10.9019 6.0229 11.1418 6.24703 11.3127C6.47116 11.4837 6.74526 11.5762 7.02714 11.5761H13.5568C13.8363 11.5758 14.1081 11.4844 14.331 11.3158C14.5539 11.1472 14.7158 10.9105 14.7921 10.6416L16.715 3.86126H3.86126L4.94741 7.549V7.55029ZM9.00276 16.071C9.00276 16.5824 8.79963 17.0728 8.43805 17.4344C8.07646 17.796 7.58605 17.9991 7.0747 17.9991C6.56335 17.9991 6.07294 17.796 5.71135 17.4344C5.34977 17.0728 5.14664 16.5824 5.14664 16.071C5.14664 15.5597 5.34977 15.0693 5.71135 14.7077C6.07294 14.3461 6.56335 14.143 7.0747 14.143C7.58605 14.143 8.07646 14.3461 8.43805 14.7077C8.79963 15.0693 9.00276 15.5597 9.00276 16.071ZM7.71739 16.071C7.71739 15.9006 7.64968 15.7371 7.52915 15.6166C7.40862 15.4961 7.24515 15.4283 7.0747 15.4283C6.90425 15.4283 6.74078 15.4961 6.62025 15.6166C6.49972 15.7371 6.43201 15.9006 6.43201 16.071C6.43201 16.2415 6.49972 16.405 6.62025 16.5255C6.74078 16.646 6.90425 16.7137 7.0747 16.7137C7.24515 16.7137 7.40862 16.646 7.52915 16.5255C7.64968 16.405 7.71739 16.2415 7.71739 16.071ZM15.4296 16.071C15.4296 16.5824 15.2265 17.0728 14.8649 17.4344C14.5033 17.796 14.0129 17.9991 13.5016 17.9991C12.9902 17.9991 12.4998 17.796 12.1382 17.4344C11.7766 17.0728 11.5735 16.5824 11.5735 16.071C11.5735 15.5597 11.7766 15.0693 12.1382 14.7077C12.4998 14.3461 12.9902 14.143 13.5016 14.143C14.0129 14.143 14.5033 14.3461 14.8649 14.7077C15.2265 15.0693 15.4296 15.5597 15.4296 16.071ZM14.1443 16.071C14.1443 15.9006 14.0765 15.7371 13.956 15.6166C13.8355 15.4961 13.672 15.4283 13.5016 15.4283C13.3311 15.4283 13.1676 15.4961 13.0471 15.6166C12.9266 15.7371 12.8589 15.9006 12.8589 16.071C12.8589 16.2415 12.9266 16.405 13.0471 16.5255C13.1676 16.646 13.3311 16.7137 13.5016 16.7137C13.672 16.7137 13.8355 16.646 13.956 16.5255C14.0765 16.405 14.1443 16.2415 14.1443 16.071Z"
        fill="#ECD690" />
</svg>