<svg width="18" height="18" viewBox="0 0 18 18" fill="none" xmlns="http://www.w3.org/2000/svg">
    <path
        d="M17.82 0H0.18C0.081 0 0 0.0920455 0 0.204545V1.84091C0 1.95341 0.081 2.04545 0.18 2.04545H17.82C17.919 2.04545 18 1.95341 18 1.84091V0.204545C18 0.0920455 17.919 0 17.82 0ZM17.82 15.9545H0.18C0.081 15.9545 0 16.0466 0 16.1591V17.7955C0 17.908 0.081 18 0.18 18H17.82C17.919 18 18 17.908 18 17.7955V16.1591C18 16.0466 17.919 15.9545 17.82 15.9545ZM17.82 7.97727H0.18C0.081 7.97727 0 8.06932 0 8.18182V9.81818C0 9.93068 0.081 10.0227 0.18 10.0227H17.82C17.919 10.0227 18 9.93068 18 9.81818V8.18182C18 8.06932 17.919 7.97727 17.82 7.97727Z"
        fill="#ECD690" />
</svg>